#N canvas 827 239 734 565 12;
#X obj 548 201 bng 25 250 50 0 empty empty empty 0 -10 0 10 #e4e4e4 #4d4d4d #373737;
#X obj 709 201 bng 25 250 50 0 empty empty empty 0 -10 0 10 #e4e4e4 #4d4d4d #373737;
#X obj 548 497 dac~;
#X obj 548 383 osc~;
#X obj 709 383 osc~;
#X obj 548 439 *~ 0.5;
#X msg 548 297 261.63;
#X msg 621 297 329.63;
#X msg 709 297 261.63;
#X msg 774 297 311.13;
#X connect 0 0 6 0;
#X connect 0 0 7 0;
#X connect 1 0 8 0;
#X connect 1 0 9 0;
#X connect 3 0 5 0;
#X connect 4 0 5 0;
#X connect 5 0 2 0;
#X connect 5 0 2 1;
#X connect 6 0 3 0;
#X connect 7 0 4 0;
#X connect 8 0 3 0;
#X connect 9 0 4 0;
