#N canvas 827 239 734 565 12;
#X text 75 29 Linear;
#X obj 52 355 dac~;
#X obj 52 193 osc~;
#X obj 52 300 *~;
#X obj 188 239 tgl 25 0 empty empty empty 0 -10 0 10 #e4e4e4 #4d4d4d #373737 0 1;
#X obj 52 239 *~ 0.5;
#X obj 52 100 line;
#X obj 52 147 mtof;
#X text 331 29 Logarithmic;
#X obj 302 355 dac~;
#X obj 302 193 osc~;
#X obj 302 300 *~;
#X obj 438 239 tgl 25 0 empty empty empty 0 -10 0 10 #e4e4e4 #4d4d4d #373737 0 1;
#X obj 302 239 *~ 0.5;
#X obj 302 100 line;
#X msg 52 54 48 \, 84 10000;
#X msg 302 54 130.8 \, 1046.5 10000;
#X connect 2 0 5 0;
#X connect 3 0 1 0;
#X connect 3 0 1 1;
#X connect 4 0 3 1;
#X connect 5 0 3 0;
#X connect 6 0 7 0;
#X connect 7 0 2 0;
#X connect 10 0 13 0;
#X connect 11 0 9 0;
#X connect 11 0 9 1;
#X connect 12 0 11 1;
#X connect 13 0 11 0;
#X connect 14 0 10 0;
#X connect 15 0 6 0;
#X connect 16 0 14 0;
