#N canvas 827 239 734 565 12;
#X obj 268 99 bng 25 250 50 0 empty empty empty 0 -10 0 10 #e4e4e4 #4d4d4d #373737;
#X obj 229 244 f;
#X obj 245 373 osc~;
#X obj 245 415 *~ 0.5;
#X obj 245 458 *~;
#X obj 367 422 tgl 25 0 empty empty empty 0 -10 0 10 #e4e4e4 #4d4d4d #373737 0 1;
#X obj 245 504 dac~;
#X obj 245 329 mtof;
#X obj 220 144 t a a;
#X obj 346 285 + 0.5;
#X obj 142 186 metro 500;
#X floatatom 353 329 5 0 0 0 - - - 12;
#X obj 229 285 t a a a;
#X msg 240 186 60;
#X text 274 185 Start with C4;
#X text 405 243 End with C5;
#X obj 346 244 sel 72;
#X connect 0 0 8 0;
#X connect 1 0 12 0;
#X connect 2 0 3 0;
#X connect 3 0 4 0;
#X connect 4 0 6 0;
#X connect 4 0 6 1;
#X connect 5 0 4 1;
#X connect 7 0 2 0;
#X connect 8 0 10 0;
#X connect 8 1 13 0;
#X connect 9 0 1 1;
#X connect 10 0 1 0;
#X connect 12 0 16 0;
#X connect 12 1 7 0;
#X connect 12 2 11 0;
#X connect 13 0 1 1;
#X connect 16 1 9 0;
