#N canvas 827 239 734 565 12;
#X obj 172 194 bng 25 250 50 0 empty empty empty 0 -10 0 10 #333333 #eeeeee #111111;
#X obj 183 346 random 1000;
#X floatatom 182 393 5 0 0 0 - - - 12;
#X obj 144 447 line;
#X msg 108 385 500;
#X obj 144 484 osc~;
#X obj 144 533 *~;
#X obj 276 447 tgl 25 0 empty empty empty 0 -10 0 10 #333333 #eeeeee #111111 0 1;
#X obj 144 587 dac~;
#X obj 172 244 metro 500;
#X obj 172 286 t a a;
#X connect 0 0 9 0;
#X connect 1 0 2 0;
#X connect 2 0 3 0;
#X connect 3 0 5 0;
#X connect 4 0 3 1;
#X connect 5 0 6 0;
#X connect 6 0 8 0;
#X connect 6 0 8 1;
#X connect 7 0 6 1;
#X connect 9 0 10 0;
#X connect 10 0 4 0;
#X connect 10 1 1 0;
