#N canvas 827 239 734 565 12;
#X obj 172 194 bng 25 250 50 0 empty empty empty 0 -10 0 10 #333333 #eeeeee #111111;
#X obj 172 283 random 1000;
#X obj 172 365 line;
#X obj 172 405 osc~;
#X obj 172 447 *~;
#X obj 280 372 tgl 25 0 empty empty empty 0 -10 0 10 #333333 #eeeeee #111111 0 1;
#X obj 172 505 dac~;
#X obj 172 244 metro 500;
#X msg 172 325 \$1 500;
#X connect 0 0 7 0;
#X connect 1 0 8 0;
#X connect 2 0 3 0;
#X connect 3 0 4 0;
#X connect 4 0 6 0;
#X connect 4 0 6 1;
#X connect 5 0 4 1;
#X connect 7 0 1 0;
#X connect 8 0 2 0;
