#N canvas 827 239 734 565 12;
#X obj 232 28 bng 25 250 50 0 empty empty empty 0 -10 0 10 #333333 #eeeeee #111111;
#X obj 232 370 bng 25 250 50 0 empty empty empty 0 -10 0 10 #333333 #eeeeee #111111;
#X obj 335 297 expr 60000 / $f1;
#X obj 232 333 metro;
#X obj 232 80 t a a;
#X floatatom 362 58 5 60 240 0 - - - 12;
#X msg 300 28 120;
#X text 389 277 BPM to ms;
#X obj 362 99 t a a;
#X obj 433 159 expr $f1 + $f1 / 2;
#X obj 270 159 expr $f1 - $f1 / 2;
#X obj 335 230 rand.f;
#X text 353 27 BPM input (60-240 \, default 120);
#X text 232 400 New random tempo per step;
#X text 422 137 Calculate max BPM;
#X text 270 137 Calculate min BPM;
#X connect 0 0 4 0;
#X connect 1 0 11 0;
#X connect 2 0 3 1;
#X connect 3 0 1 0;
#X connect 4 0 3 0;
#X connect 4 1 6 0;
#X connect 5 0 8 0;
#X connect 6 0 5 0;
#X connect 8 0 10 0;
#X connect 8 1 9 0;
#X connect 9 0 11 2;
#X connect 10 0 11 1;
#X connect 11 0 2 0;
