#N canvas 827 239 708 384 12;
#X obj 75 98 bng 25 250 50 0 empty empty empty 0 -10 0 10 #e4e4e4 #4d4d4d #373737;
#X obj 215 274 expr 60000 / $f1;
#X msg 215 224 60;
#X msg 275 224 100;
#X obj 215 181 sel;
#X obj 215 134 tgl 25 0 empty empty empty 0 -10 0 10 #e4e4e4 #4d4d4d #373737 0 1;
#X floatatom 75 304 5 0 0 0 - - - 12;
#X text 237 112 0 -> 60 BPM / 1 -> 100 BPM;
#X text 231 295 BPM to ms conversion;
#X obj 75 253 count 1 5;
#X obj 75 169 metro 1000;
#X connect 0 0 10 0;
#X connect 1 0 10 1;
#X connect 2 0 1 0;
#X connect 3 0 1 0;
#X connect 4 0 2 0;
#X connect 4 1 3 0;
#X connect 5 0 4 0;
#X connect 9 0 6 0;
#X connect 9 1 5 0;
#X connect 10 0 9 0;
