#N canvas 827 239 734 565 12;
#X obj 78 465 dac~;
#X obj 78 360 osc~;
#X obj 78 412 *~;
#X obj 232 335 tgl 25 0 empty empty empty 0 -10 0 10 #e4e4e4 #4d4d4d #373737 0 1;
#X obj 78 26 bng 25 250 50 0 empty empty empty 0 -10 0 10 #e4e4e4 #4d4d4d #373737;
#X obj 214 101 metro 2000;
#X obj 214 155 tgl 25 0 empty empty empty 0 -10 0 10 #e4e4e4 #4d4d4d #373737 0 1;
#X obj 78 144 metro 250;
#X obj 78 71 t a a;
#X obj 78 311 +;
#X obj 78 208 random 200;
#X obj 214 208 route 0 1;
#X msg 214 256 100;
#X msg 310 256 1000;
#X connect 1 0 2 0;
#X connect 2 0 0 0;
#X connect 2 0 0 1;
#X connect 3 0 2 1;
#X connect 4 0 8 0;
#X connect 5 0 6 0;
#X connect 6 0 11 0;
#X connect 7 0 10 0;
#X connect 8 0 7 0;
#X connect 8 1 5 0;
#X connect 9 0 1 0;
#X connect 10 0 9 0;
#X connect 11 0 12 0;
#X connect 11 1 13 0;
#X connect 12 0 9 1;
#X connect 13 0 9 1;
