#N canvas 827 239 734 565 12;
#X obj 396 996 dac~;
#X obj 396 936 *~;
#X msg 126 824 0;
#X msg 198 824 0.4;
#X obj 958 457 bng 25 250 50 0 empty empty empty 0 -10 0 10 #e4e4e4 #4d4d4d #373737;
#X obj 396 727 osc~;
#X obj 396 776 *~;
#X obj 465 642 random 100;
#X obj 465 682 / 100;
#X floatatom 465 727 5 0 0 0 - - - 12;
#X floatatom 254 264 5 0 0 0 - - - 12;
#X text 183 238 Fundamental Frequency (Hz);
#X text 914 430 New Random Color;
#X obj 581 727 osc~;
#X obj 581 776 *~;
#X obj 650 642 random 100;
#X obj 650 682 / 100;
#X floatatom 650 727 5 0 0 0 - - - 12;
#X obj 1015 727 osc~;
#X obj 1015 776 *~;
#X obj 1084 642 random 100;
#X obj 1084 682 / 100;
#X floatatom 1084 727 5 0 0 0 - - - 12;
#X obj 790 727 osc~;
#X obj 790 776 *~;
#X obj 859 642 random 100;
#X obj 859 682 / 100;
#X floatatom 859 727 5 0 0 0 - - - 12;
#X obj 465 239 random 100;
#X obj 465 280 / 100;
#X floatatom 465 324 5 0 0 0 - - - 12;
#X obj 396 596 *;
#X floatatom 396 642 5 0 0 0 - - - 12;
#X obj 396 407 f;
#X obj 396 59 bng 25 250 50 0 empty empty empty 0 -10 0 10 #e4e4e4 #4d4d4d #373737;
#X obj 465 363 + 1;
#X obj 650 239 random 100;
#X obj 650 280 / 100;
#X floatatom 650 324 5 0 0 0 - - - 12;
#X obj 581 596 *;
#X obj 650 363 + 2;
#X obj 859 239 random 100;
#X obj 859 280 / 100;
#X floatatom 859 324 5 0 0 0 - - - 12;
#X obj 790 596 *;
#X obj 859 363 + 3;
#X obj 1084 239 random 100;
#X obj 1084 280 / 100;
#X floatatom 1084 324 5 0 0 0 - - - 12;
#X obj 1015 596 *;
#X obj 1084 363 + 4;
#X floatatom 581 642 5 0 0 0 - - - 12;
#X floatatom 790 642 5 0 0 0 - - - 12;
#X floatatom 1015 642 5 0 0 0 - - - 12;
#X obj 396 145 t b b b b b;
#X floatatom 796 117 5 0 0 0 - - - 12;
#X text 796 95 Spread;
#X text 396 37 New Chord;
#X obj 254 314 t b a;
#X text 30 58 1: Click "New Random Color" \; 2: Set the spread value \; 3: Set the fundamental frequency \; 4: Click the "0.4" message box to set the volume \; 5: Click "New Chord", f 47;
#X connect 1 0 0 0;
#X connect 1 0 0 1;
#X connect 2 0 1 1;
#X connect 3 0 1 1;
#X connect 4 0 7 0;
#X connect 4 0 15 0;
#X connect 4 0 25 0;
#X connect 4 0 20 0;
#X connect 5 0 6 0;
#X connect 6 0 1 0;
#X connect 7 0 8 0;
#X connect 8 0 9 0;
#X connect 9 0 6 1;
#X connect 10 0 58 0;
#X connect 13 0 14 0;
#X connect 14 0 1 0;
#X connect 15 0 16 0;
#X connect 16 0 17 0;
#X connect 17 0 14 1;
#X connect 18 0 19 0;
#X connect 19 0 1 0;
#X connect 20 0 21 0;
#X connect 21 0 22 0;
#X connect 22 0 19 1;
#X connect 23 0 24 0;
#X connect 24 0 1 0;
#X connect 25 0 26 0;
#X connect 26 0 27 0;
#X connect 27 0 24 1;
#X connect 28 0 29 0;
#X connect 29 0 30 0;
#X connect 30 0 35 0;
#X connect 31 0 32 0;
#X connect 32 0 5 0;
#X connect 33 0 39 0;
#X connect 33 0 31 0;
#X connect 33 0 44 0;
#X connect 33 0 49 0;
#X connect 34 0 54 0;
#X connect 35 0 31 1;
#X connect 36 0 37 0;
#X connect 37 0 38 0;
#X connect 38 0 40 0;
#X connect 39 0 51 0;
#X connect 40 0 39 1;
#X connect 41 0 42 0;
#X connect 42 0 43 0;
#X connect 43 0 45 0;
#X connect 44 0 52 0;
#X connect 45 0 44 1;
#X connect 46 0 47 0;
#X connect 47 0 48 0;
#X connect 48 0 50 0;
#X connect 49 0 53 0;
#X connect 50 0 49 1;
#X connect 51 0 13 0;
#X connect 52 0 23 0;
#X connect 53 0 18 0;
#X connect 54 0 33 0;
#X connect 54 1 28 0;
#X connect 54 2 36 0;
#X connect 54 3 41 0;
#X connect 54 4 46 0;
#X connect 55 0 46 1;
#X connect 55 0 41 1;
#X connect 55 0 36 1;
#X connect 55 0 28 1;
#X connect 58 0 33 0;
#X connect 58 1 33 1;
