#N canvas 827 239 734 565 12;
#X text 175 191 a) Create (random) glissando chords that also have random volume changes for each individual tone;
#N canvas 0 50 450 300 o1 1;
#X obj 300 43 inlet;
#X obj 212 499 outlet~;
#X obj 212 447 *~;
#N canvas 0 50 450 300 o1 0;
#X obj 91 42 inlet;
#X obj 91 141 metro 80;
#X obj 91 223 random 100;
#X obj 91 435 outlet~;
#X obj 91 339 mtof;
#X obj 91 383 osc~;
#X obj 91 289 + 20;
#X obj 250 42 r tempo;
#X floatatom 250 85 5 0 0 0 - - - 12;
#X obj 250 133 r ambitus;
#X floatatom 186 183 5 0 0 0 - - - 12;
#X obj 91 85 tgl 25 0 empty empty empty 0 -10 0 10 #191919 #ffffff #ffffff 0 1;
#X obj 250 200 r offset;
#X floatatom 250 240 5 0 0 0 - - - 16;
#X connect 0 0 11 0;
#X connect 1 0 2 0;
#X connect 2 0 6 0;
#X connect 4 0 5 0;
#X connect 5 0 3 0;
#X connect 6 0 4 0;
#X connect 7 0 8 0;
#X connect 8 0 1 1;
#X connect 9 0 10 0;
#X connect 10 0 2 1;
#X connect 11 0 1 0;
#X connect 12 0 13 0;
#X connect 13 0 6 1;
#X restore -603 203 pd o1;
#X obj 212 118 random 50;
#X obj 212 154 + 50;
#X obj 333 341 random 100;
#X obj 333 397 / 100;
#X obj 300 167 t b f b;
#X obj 212 397 osc~;
#X obj 212 341 mtof~;
#X obj 212 293 line~;
#X obj 212 242 pack f f;
#X text 352 314 Random volume;
#X text 27 117 Random note (min. 50) -->;
#X text 79 232 Ramp to random note using the global random ramp time (from the inlet -->, f 17;
#X connect 0 0 8 0;
#X connect 2 0 1 0;
#X connect 4 0 5 0;
#X connect 5 0 12 0;
#X connect 6 0 7 0;
#X connect 7 0 2 1;
#X connect 8 0 4 0;
#X connect 8 1 12 1;
#X connect 8 2 6 0;
#X connect 9 0 2 0;
#X connect 10 0 9 0;
#X connect 11 0 10 0;
#X connect 12 0 11 0;
#X restore 175 484 pd o1;
#X obj 322 633 dac~;
#X obj 322 577 *~;
#X obj 547 539 line~;
#X msg 547 484 \$1 20;
#X obj 175 261 tgl 25 0 empty empty empty 0 -10 0 10 #191919 #ffffff #ffffff 0 1;
#X obj 550 302 vsl 17 128 0 1 1 0 empty empty empty 0 -9 0 10 #e4e4e4 #4d4d4d #373737 0 1;
#X floatatom 228 268 5 0 0 0 - - - 12;
#X obj 175 334 metro 1000;
#X text 272 267 <-- Tempo (in ms);
#X obj 175 384 random 1000;
#X text 264 383 <-- Random glissando ramp time (common to all oscillators), f 32;
#N canvas 0 50 450 300 o1 0;
#X obj 300 43 inlet;
#X obj 212 499 outlet~;
#X obj 212 447 *~;
#N canvas 0 50 450 300 o1 0;
#X obj 91 42 inlet;
#X obj 91 141 metro 80;
#X obj 91 223 random 100;
#X obj 91 435 outlet~;
#X obj 91 339 mtof;
#X obj 91 383 osc~;
#X obj 91 289 + 20;
#X obj 250 42 r tempo;
#X floatatom 250 85 5 0 0 0 - - - 12;
#X obj 250 133 r ambitus;
#X floatatom 186 183 5 0 0 0 - - - 12;
#X obj 91 85 tgl 25 0 empty empty empty 0 -10 0 10 #191919 #ffffff #ffffff 0 1;
#X obj 250 200 r offset;
#X floatatom 250 240 5 0 0 0 - - - 16;
#X connect 0 0 11 0;
#X connect 1 0 2 0;
#X connect 2 0 6 0;
#X connect 4 0 5 0;
#X connect 5 0 3 0;
#X connect 6 0 4 0;
#X connect 7 0 8 0;
#X connect 8 0 1 1;
#X connect 9 0 10 0;
#X connect 10 0 2 1;
#X connect 11 0 1 0;
#X connect 12 0 13 0;
#X connect 13 0 6 1;
#X restore -603 203 pd o1;
#X obj 212 118 random 50;
#X obj 212 154 + 50;
#X obj 333 341 random 100;
#X obj 333 397 / 100;
#X obj 300 167 t b f b;
#X obj 212 397 osc~;
#X obj 212 341 mtof~;
#X obj 212 293 line~;
#X obj 212 242 pack f f;
#X text 352 314 Random volume;
#X text 27 117 Random note (min. 50) -->;
#X text 79 233 Ramp to random note using the global random ramp time (from the inlet -->, f 17;
#X connect 0 0 8 0;
#X connect 2 0 1 0;
#X connect 4 0 5 0;
#X connect 5 0 12 0;
#X connect 6 0 7 0;
#X connect 7 0 2 1;
#X connect 8 0 4 0;
#X connect 8 1 12 1;
#X connect 8 2 6 0;
#X connect 9 0 2 0;
#X connect 10 0 9 0;
#X connect 11 0 10 0;
#X connect 12 0 11 0;
#X restore 248 484 pd o1;
#N canvas 0 50 450 300 o1 0;
#X obj 300 43 inlet;
#X obj 212 499 outlet~;
#X obj 212 447 *~;
#N canvas 0 50 450 300 o1 0;
#X obj 91 42 inlet;
#X obj 91 141 metro 80;
#X obj 91 223 random 100;
#X obj 91 435 outlet~;
#X obj 91 339 mtof;
#X obj 91 383 osc~;
#X obj 91 289 + 20;
#X obj 250 42 r tempo;
#X floatatom 250 85 5 0 0 0 - - - 12;
#X obj 250 133 r ambitus;
#X floatatom 186 183 5 0 0 0 - - - 12;
#X obj 91 85 tgl 25 0 empty empty empty 0 -10 0 10 #191919 #ffffff #ffffff 0 1;
#X obj 250 200 r offset;
#X floatatom 250 240 5 0 0 0 - - - 16;
#X connect 0 0 11 0;
#X connect 1 0 2 0;
#X connect 2 0 6 0;
#X connect 4 0 5 0;
#X connect 5 0 3 0;
#X connect 6 0 4 0;
#X connect 7 0 8 0;
#X connect 8 0 1 1;
#X connect 9 0 10 0;
#X connect 10 0 2 1;
#X connect 11 0 1 0;
#X connect 12 0 13 0;
#X connect 13 0 6 1;
#X restore -603 203 pd o1;
#X obj 212 118 random 50;
#X obj 212 154 + 50;
#X obj 333 341 random 100;
#X obj 333 397 / 100;
#X obj 300 167 t b f b;
#X obj 212 397 osc~;
#X obj 212 341 mtof~;
#X obj 212 293 line~;
#X obj 212 242 pack f f;
#X text 352 314 Random volume;
#X text 27 117 Random note (min. 50) -->;
#X text 79 233 Ramp to random note using the global random ramp time (from the inlet -->, f 17;
#X connect 0 0 8 0;
#X connect 2 0 1 0;
#X connect 4 0 5 0;
#X connect 5 0 12 0;
#X connect 6 0 7 0;
#X connect 7 0 2 1;
#X connect 8 0 4 0;
#X connect 8 1 12 1;
#X connect 8 2 6 0;
#X connect 9 0 2 0;
#X connect 10 0 9 0;
#X connect 11 0 10 0;
#X connect 12 0 11 0;
#X restore 322 484 pd o1;
#N canvas 0 50 450 300 o1 0;
#X obj 300 43 inlet;
#X obj 212 499 outlet~;
#X obj 212 447 *~;
#N canvas 0 50 450 300 o1 0;
#X obj 91 42 inlet;
#X obj 91 141 metro 80;
#X obj 91 223 random 100;
#X obj 91 435 outlet~;
#X obj 91 339 mtof;
#X obj 91 383 osc~;
#X obj 91 289 + 20;
#X obj 250 42 r tempo;
#X floatatom 250 85 5 0 0 0 - - - 12;
#X obj 250 133 r ambitus;
#X floatatom 186 183 5 0 0 0 - - - 12;
#X obj 91 85 tgl 25 0 empty empty empty 0 -10 0 10 #191919 #ffffff #ffffff 0 1;
#X obj 250 200 r offset;
#X floatatom 250 240 5 0 0 0 - - - 16;
#X connect 0 0 11 0;
#X connect 1 0 2 0;
#X connect 2 0 6 0;
#X connect 4 0 5 0;
#X connect 5 0 3 0;
#X connect 6 0 4 0;
#X connect 7 0 8 0;
#X connect 8 0 1 1;
#X connect 9 0 10 0;
#X connect 10 0 2 1;
#X connect 11 0 1 0;
#X connect 12 0 13 0;
#X connect 13 0 6 1;
#X restore -603 203 pd o1;
#X obj 212 118 random 50;
#X obj 212 154 + 50;
#X obj 333 341 random 100;
#X obj 333 397 / 100;
#X obj 300 167 t b f b;
#X obj 212 397 osc~;
#X obj 212 341 mtof~;
#X obj 212 293 line~;
#X obj 212 242 pack f f;
#X text 352 314 Random volume;
#X text 27 117 Random note (min. 50) -->;
#X text 79 233 Ramp to random note using the global random ramp time (from the inlet -->, f 17;
#X connect 0 0 8 0;
#X connect 2 0 1 0;
#X connect 4 0 5 0;
#X connect 5 0 12 0;
#X connect 6 0 7 0;
#X connect 7 0 2 1;
#X connect 8 0 4 0;
#X connect 8 1 12 1;
#X connect 8 2 6 0;
#X connect 9 0 2 0;
#X connect 10 0 9 0;
#X connect 11 0 10 0;
#X connect 12 0 11 0;
#X restore 397 484 pd o1;
#N canvas 0 50 450 300 o1 0;
#X obj 300 43 inlet;
#X obj 212 499 outlet~;
#X obj 212 447 *~;
#N canvas 0 50 450 300 o1 0;
#X obj 91 42 inlet;
#X obj 91 141 metro 80;
#X obj 91 223 random 100;
#X obj 91 435 outlet~;
#X obj 91 339 mtof;
#X obj 91 383 osc~;
#X obj 91 289 + 20;
#X obj 250 42 r tempo;
#X floatatom 250 85 5 0 0 0 - - - 12;
#X obj 250 133 r ambitus;
#X floatatom 186 183 5 0 0 0 - - - 12;
#X obj 91 85 tgl 25 0 empty empty empty 0 -10 0 10 #191919 #ffffff #ffffff 0 1;
#X obj 250 200 r offset;
#X floatatom 250 240 5 0 0 0 - - - 16;
#X connect 0 0 11 0;
#X connect 1 0 2 0;
#X connect 2 0 6 0;
#X connect 4 0 5 0;
#X connect 5 0 3 0;
#X connect 6 0 4 0;
#X connect 7 0 8 0;
#X connect 8 0 1 1;
#X connect 9 0 10 0;
#X connect 10 0 2 1;
#X connect 11 0 1 0;
#X connect 12 0 13 0;
#X connect 13 0 6 1;
#X restore -603 203 pd o1;
#X obj 212 118 random 50;
#X obj 212 154 + 50;
#X obj 333 341 random 100;
#X obj 333 397 / 100;
#X obj 300 167 t b f b;
#X obj 212 397 osc~;
#X obj 212 341 mtof~;
#X obj 212 293 line~;
#X obj 212 242 pack f f;
#X text 352 314 Random volume;
#X text 27 117 Random note (min. 50) -->;
#X text 79 233 Ramp to random note using the global random ramp time (from the inlet -->, f 17;
#X connect 0 0 8 0;
#X connect 2 0 1 0;
#X connect 4 0 5 0;
#X connect 5 0 12 0;
#X connect 6 0 7 0;
#X connect 7 0 2 1;
#X connect 8 0 4 0;
#X connect 8 1 12 1;
#X connect 8 2 6 0;
#X connect 9 0 2 0;
#X connect 10 0 9 0;
#X connect 11 0 10 0;
#X connect 12 0 11 0;
#X restore 470 484 pd o1;
#X connect 1 0 3 0;
#X connect 3 0 2 0;
#X connect 3 0 2 1;
#X connect 4 0 3 1;
#X connect 5 0 4 0;
#X connect 6 0 9 0;
#X connect 7 0 5 0;
#X connect 8 0 9 1;
#X connect 9 0 11 0;
#X connect 11 0 1 0;
#X connect 11 0 13 0;
#X connect 11 0 14 0;
#X connect 11 0 15 0;
#X connect 11 0 16 0;
#X connect 13 0 3 0;
#X connect 14 0 3 0;
#X connect 15 0 3 0;
#X connect 16 0 3 0;
