#N canvas 827 239 734 565 12;
#X text 256 72 b) Create a patch in which the volume from a microphone input controls an oscillator's pitch (then use several \, each with a different offset)!, f 63;
#X obj 317 213 adc~;
#X obj 317 255 env~ 128;
#X obj 317 301 mtof;
#X obj 317 348 osc~;
#X obj 317 449 *~;
#X obj 435 393 tgl 25 0 empty empty empty 0 -10 0 10 #191919 #ffffff #ffffff 0 1;
#X obj 317 499 dac~;
#X obj 317 393 *~ 0.7;
#X text 317 172 One;
#X text 552 172 Several;
#X obj 552 213 adc~;
#X obj 552 255 env~ 128;
#X obj 552 393 mtof;
#X obj 552 543 *~;
#X obj 668 493 tgl 25 0 empty empty empty 0 -10 0 10 #191919 #ffffff #ffffff 0 1;
#X obj 552 601 dac~;
#X obj 552 493 *~ 0.2;
#X obj 552 301 / 2;
#X obj 552 348 + 20;
#X obj 624 348 + 40;
#X obj 697 348 + 60;
#X obj 697 393 mtof;
#X obj 624 393 mtof;
#X obj 552 437 osc~;
#X obj 624 437 osc~;
#X obj 697 437 osc~;
#X connect 1 0 2 0;
#X connect 2 0 3 0;
#X connect 3 0 4 0;
#X connect 4 0 8 0;
#X connect 5 0 7 0;
#X connect 5 0 7 1;
#X connect 6 0 5 1;
#X connect 8 0 5 0;
#X connect 11 0 12 0;
#X connect 12 0 18 0;
#X connect 13 0 24 0;
#X connect 14 0 16 0;
#X connect 14 0 16 1;
#X connect 15 0 14 1;
#X connect 17 0 14 0;
#X connect 18 0 19 0;
#X connect 18 0 20 0;
#X connect 18 0 21 0;
#X connect 19 0 13 0;
#X connect 20 0 23 0;
#X connect 21 0 22 0;
#X connect 22 0 26 0;
#X connect 23 0 25 0;
#X connect 24 0 17 0;
#X connect 25 0 17 0;
#X connect 26 0 17 0;
