#N canvas 827 239 734 565 12;
#X obj 224 75 bng 25 250 50 0 empty empty empty 0 -10 0 10 #333333 #eeeeee #111111;
#X obj 224 128 f;
#X obj 299 175 + 1;
#X obj 224 228 route 1 2 3 4 5 6;
#X msg 111 288 440 0.5;
#X msg 177 288 500 0.9;
#X msg 244 288 573 0.2;
#X msg 309 288 540 0.6;
#X msg 377 288 600 0.4;
#X msg 451 288 643 1;
#X obj 252 365 unpack f f;
#X floatatom 252 414 4 0 0 0 - - - 16;
#X floatatom 333 414 4 0 0 0 - - - 16;
#X obj 252 462 osc~;
#X obj 252 513 *~;
#X obj 252 583 *~;
#X obj 350 513 tgl 25 0 empty empty empty 0 -10 0 10 #333333 #eeeeee #111111 0 1;
#X obj 252 665 dac~;
#X msg 328 75 0;
#X floatatom 416 228 5 0 0 0 - - - 12;
#X connect 0 0 1 0;
#X connect 1 0 2 0;
#X connect 2 0 3 0;
#X connect 2 0 1 1;
#X connect 2 0 19 0;
#X connect 3 0 4 0;
#X connect 3 1 5 0;
#X connect 3 2 6 0;
#X connect 3 3 7 0;
#X connect 3 4 8 0;
#X connect 3 5 9 0;
#X connect 4 0 10 0;
#X connect 5 0 10 0;
#X connect 6 0 10 0;
#X connect 7 0 10 0;
#X connect 8 0 10 0;
#X connect 9 0 10 0;
#X connect 10 0 11 0;
#X connect 10 1 12 0;
#X connect 11 0 13 0;
#X connect 12 0 14 1;
#X connect 13 0 14 0;
#X connect 14 0 15 0;
#X connect 15 0 17 0;
#X connect 15 0 17 1;
#X connect 16 0 15 1;
#X connect 18 0 1 1;
