#N canvas 827 239 734 565 12;
#X obj 511 2011 bng 25 250 50 0 empty empty empty 0 -10 0 10 #333333 #eeeeee #111111;
#X obj 511 2067 f;
#X obj 511 2121 + 1;
#X obj 511 2179 route 1 2 3 4 5 6;
#X connect 0 0 1 0;
#X connect 1 0 2 0;
#X connect 2 0 3 0;
