#N canvas 827 239 734 565 12;
#X obj 261 122 unpack f f;
#X obj 261 236 expr $f2 - $f1 + 1;
#X obj 414 236 f;
#X obj 261 295 until;
#X msg 261 61 -2 4;
#X obj 425 346 expr pow(3\\\, $f1);
#X obj 425 396 print y;
#X obj 414 295 t a a;
#X obj 484 270 + 1;
#X obj 261 172 t a a;
#X text 301 179 <--- 1 - Store the initial x value, f 27;
#X text 93 189 2 - calculate n iterations --->;
#X text 221 321 3 - Start looping;
#X text 441 310 <--- 4 - Compute the expr. for the current x;
#X text 484 245 5 - Increment x and store it;
#X connect 0 0 9 0;
#X connect 0 1 1 1;
#X connect 1 0 3 0;
#X connect 2 0 7 0;
#X connect 3 0 2 0;
#X connect 4 0 0 0;
#X connect 5 0 6 0;
#X connect 7 0 8 0;
#X connect 7 1 5 0;
#X connect 8 0 2 1;
#X connect 9 0 1 0;
#X connect 9 1 2 1;
