#N canvas 827 239 734 565 12;
#X obj 30 630 print y;
#X text 94 609 y=3^x;
#X msg 143 136 -2 4;
#X obj 143 189 unpack f f;
#X obj 143 246 t b b f;
#X obj 58 289 bng 25 250 50 0 empty empty empty 0 -10 0 10 #333333 #eeeeee #111111;
#X obj 118 331 f;
#X obj 118 381 + 1;
#X obj 178 431 spigot;
#X obj 152 478 t b f;
#X msg 220 369 1;
#X msg 257 369 0;
#X floatatom 129 530 5 0 0 0 - - - 12;
#X obj 178 571 sel;
#X obj 178 620 bng 25 250 50 0 empty empty empty 0 -10 0 10 #333333 #eeeeee #111111;
#X obj 30 592 expr pow(3 \, $f1);
#X connect 2 0 3 0;
#X connect 3 0 4 0;
#X connect 3 1 13 1;
#X connect 4 0 5 0;
#X connect 4 1 10 0;
#X connect 4 2 6 1;
#X connect 5 0 6 0;
#X connect 6 0 7 0;
#X connect 7 0 8 0;
#X connect 8 0 9 0;
#X connect 9 0 5 0;
#X connect 9 1 12 0;
#X connect 9 1 6 1;
#X connect 10 0 8 1;
#X connect 11 0 8 1;
#X connect 12 0 13 0;
#X connect 12 0 15 0;
#X connect 13 0 14 0;
#X connect 14 0 11 0;
#X connect 15 0 0 0;
