#N canvas 827 239 734 565 12;
#N canvas 0 50 450 300 o1 1;
#X obj 361 320 inlet;
#X obj 361 376 bng 25 250 50 0 empty empty empty 0 -10 0 10 #e4e4e4 #4d4d4d #373737;
#X obj 361 438 metro 80;
#X obj 361 494 random 100;
#X obj 361 550 + 20;
#X obj 361 606 mtof;
#X obj 361 662 osc~;
#X obj 361 718 outlet~;
#X connect 0 0 1 0;
#X connect 1 0 2 0;
#X connect 2 0 3 0;
#X connect 3 0 4 0;
#X connect 4 0 5 0;
#X connect 5 0 6 0;
#X connect 6 0 7 0;
#X restore 191 173 pd o1;
#N canvas 0 50 450 300 o1 0;
#X obj 361 320 inlet;
#X obj 361 376 bng 25 250 50 0 empty empty empty 0 -10 0 10 #e4e4e4 #4d4d4d #373737;
#X obj 361 438 metro 80;
#X obj 361 494 random 100;
#X obj 361 550 + 20;
#X obj 361 606 mtof;
#X obj 361 662 osc~;
#X obj 361 718 outlet~;
#X connect 0 0 1 0;
#X connect 1 0 2 0;
#X connect 2 0 3 0;
#X connect 3 0 4 0;
#X connect 4 0 5 0;
#X connect 5 0 6 0;
#X connect 6 0 7 0;
#X restore 267 173 pd o1;
#N canvas 0 50 450 300 o1 0;
#X obj 361 320 inlet;
#X obj 361 376 bng 25 250 50 0 empty empty empty 0 -10 0 10 #e4e4e4 #4d4d4d #373737;
#X obj 361 438 metro 80;
#X obj 361 494 random 100;
#X obj 361 550 + 20;
#X obj 361 606 mtof;
#X obj 361 662 osc~;
#X obj 361 718 outlet~;
#X connect 0 0 1 0;
#X connect 1 0 2 0;
#X connect 2 0 3 0;
#X connect 3 0 4 0;
#X connect 4 0 5 0;
#X connect 5 0 6 0;
#X connect 6 0 7 0;
#X restore 344 173 pd o1;
#N canvas 0 50 450 300 o1 0;
#X obj 361 320 inlet;
#X obj 361 376 bng 25 250 50 0 empty empty empty 0 -10 0 10 #e4e4e4 #4d4d4d #373737;
#X obj 361 438 metro 80;
#X obj 361 494 random 100;
#X obj 361 550 + 20;
#X obj 361 606 mtof;
#X obj 361 662 osc~;
#X obj 361 718 outlet~;
#X connect 0 0 1 0;
#X connect 1 0 2 0;
#X connect 2 0 3 0;
#X connect 3 0 4 0;
#X connect 4 0 5 0;
#X connect 5 0 6 0;
#X connect 6 0 7 0;
#X restore 421 173 pd o1;
#N canvas 0 50 450 300 o1 0;
#X obj 361 320 inlet;
#X obj 361 376 bng 25 250 50 0 empty empty empty 0 -10 0 10 #e4e4e4 #4d4d4d #373737;
#X obj 361 438 metro 80;
#X obj 361 494 random 100;
#X obj 361 550 + 20;
#X obj 361 606 mtof;
#X obj 361 662 osc~;
#X obj 361 718 outlet~;
#X connect 0 0 1 0;
#X connect 1 0 2 0;
#X connect 2 0 3 0;
#X connect 3 0 4 0;
#X connect 4 0 5 0;
#X connect 5 0 6 0;
#X connect 6 0 7 0;
#X restore 498 173 pd o1;
#N canvas 0 50 450 300 o1 0;
#X obj 361 320 inlet;
#X obj 361 376 bng 25 250 50 0 empty empty empty 0 -10 0 10 #e4e4e4 #4d4d4d #373737;
#X obj 361 438 metro 80;
#X obj 361 494 random 100;
#X obj 361 550 + 20;
#X obj 361 606 mtof;
#X obj 361 662 osc~;
#X obj 361 718 outlet~;
#X connect 0 0 1 0;
#X connect 1 0 2 0;
#X connect 2 0 3 0;
#X connect 3 0 4 0;
#X connect 4 0 5 0;
#X connect 5 0 6 0;
#X connect 6 0 7 0;
#X restore 575 173 pd o1;
#N canvas 0 50 450 300 o1 0;
#X obj 361 320 inlet;
#X obj 361 376 bng 25 250 50 0 empty empty empty 0 -10 0 10 #e4e4e4 #4d4d4d #373737;
#X obj 361 438 metro 80;
#X obj 361 494 random 100;
#X obj 361 550 + 20;
#X obj 361 606 mtof;
#X obj 361 662 osc~;
#X obj 361 718 outlet~;
#X connect 0 0 1 0;
#X connect 1 0 2 0;
#X connect 2 0 3 0;
#X connect 3 0 4 0;
#X connect 4 0 5 0;
#X connect 5 0 6 0;
#X connect 6 0 7 0;
#X restore 652 173 pd o1;
#N canvas 0 50 450 300 o1 0;
#X obj 361 320 inlet;
#X obj 361 376 bng 25 250 50 0 empty empty empty 0 -10 0 10 #e4e4e4 #4d4d4d #373737;
#X obj 361 438 metro 80;
#X obj 361 494 random 100;
#X obj 361 550 + 20;
#X obj 361 606 mtof;
#X obj 361 662 osc~;
#X obj 361 718 outlet~;
#X connect 0 0 1 0;
#X connect 1 0 2 0;
#X connect 2 0 3 0;
#X connect 3 0 4 0;
#X connect 4 0 5 0;
#X connect 5 0 6 0;
#X connect 6 0 7 0;
#X restore 729 173 pd o1;
#X obj 191 81 bng 25 250 50 0 empty empty empty 0 -10 0 10 #e4e4e4 #4d4d4d #373737;
#X obj 267 81 bng 25 250 50 0 empty empty empty 0 -10 0 10 #e4e4e4 #4d4d4d #373737;
#X obj 344 81 bng 25 250 50 0 empty empty empty 0 -10 0 10 #e4e4e4 #4d4d4d #373737;
#X obj 421 81 bng 25 250 50 0 empty empty empty 0 -10 0 10 #e4e4e4 #4d4d4d #373737;
#X obj 498 81 bng 25 250 50 0 empty empty empty 0 -10 0 10 #e4e4e4 #4d4d4d #373737;
#X obj 575 81 bng 25 250 50 0 empty empty empty 0 -10 0 10 #e4e4e4 #4d4d4d #373737;
#X obj 652 81 bng 25 250 50 0 empty empty empty 0 -10 0 10 #e4e4e4 #4d4d4d #373737;
#X obj 729 81 bng 25 250 50 0 empty empty empty 0 -10 0 10 #e4e4e4 #4d4d4d #373737;
#X obj 254 295 *~;
#X msg 91 206 0;
#X msg 91 245 0.2;
#X obj 444 418 *~;
#X floatatom 458 295 5 0 0 0 - - - 12;
#X floatatom 535 295 5 0 0 0 - - - 12;
#X obj 519 379 tgl 25 0 empty empty empty 0 -10 0 10 #e4e4e4 #4d4d4d #373737 0 1;
#X obj 627 418 *~;
#X floatatom 683 295 5 0 0 0 - - - 12;
#X obj 695 379 tgl 25 0 empty empty empty 0 -10 0 10 #e4e4e4 #4d4d4d #373737 0 1;
#X obj 627 379 hip~;
#X obj 254 418 *~;
#X floatatom 332 295 5 0 0 0 - - - 12;
#X obj 322 379 tgl 25 0 empty empty empty 0 -10 0 10 #e4e4e4 #4d4d4d #373737 0 1;
#X obj 254 379 lop~;
#X obj 444 379 bp~;
#X obj 442 509 dac~;
#X text 191 399 Low Pass;
#X text 379 399 Band Pass;
#X text 563 399 High Pass;
#X connect 0 0 16 0;
#X connect 1 0 16 0;
#X connect 2 0 16 0;
#X connect 3 0 16 0;
#X connect 4 0 16 0;
#X connect 5 0 16 0;
#X connect 6 0 16 0;
#X connect 7 0 16 0;
#X connect 8 0 0 0;
#X connect 9 0 1 0;
#X connect 10 0 2 0;
#X connect 11 0 3 0;
#X connect 12 0 4 0;
#X connect 13 0 5 0;
#X connect 14 0 6 0;
#X connect 15 0 7 0;
#X connect 16 0 30 0;
#X connect 16 0 31 0;
#X connect 16 0 26 0;
#X connect 17 0 16 1;
#X connect 18 0 16 1;
#X connect 19 0 32 0;
#X connect 19 0 32 1;
#X connect 20 0 31 1;
#X connect 21 0 31 2;
#X connect 22 0 19 1;
#X connect 23 0 32 0;
#X connect 23 0 32 1;
#X connect 24 0 26 1;
#X connect 25 0 23 1;
#X connect 26 0 23 0;
#X connect 27 0 32 0;
#X connect 27 0 32 1;
#X connect 28 0 30 1;
#X connect 29 0 27 1;
#X connect 30 0 27 0;
#X connect 31 0 19 0;
